<svg width="20" height="20" viewBox="0 0 20 20" fill="none" xmlns="http://www.w3.org/2000/svg" class="hidden  sm:block"><g clip-path="url(#clip0_253_14118)"><path d="M9.70095 19C7.1728 18.9856 4.74889 17.9908 2.93959 16.2249C1.13029 14.4591 0.0768046 12.0601 0.000948209 9.53303C-0.0349553 8.29245 0.178756 7.0573 0.629395 5.90091C1.08003 4.74451 1.75842 3.69044 2.62427 2.80127C3.49012 1.9121 4.52579 1.20595 5.66981 0.72475C6.81382 0.243547 8.04285 -0.0029048 9.28395 2.58326e-05H9.30095C11.8297 0.0136979 14.2543 1.00859 16.0638 2.77501C17.8733 4.54143 18.9263 6.94138 19.0009 9.46903C19.0366 10.7092 18.8228 11.9439 18.3722 13.0998C17.9216 14.2558 17.2434 15.3095 16.3779 16.1984C15.5124 17.0873 14.4772 17.7933 13.3337 18.2746C12.1902 18.7559 10.9616 19.0025 9.72095 19H9.70095ZM1.05895 9.50003C1.12446 11.7533 2.06199 13.8931 3.67404 15.4688C5.28609 17.0445 7.44679 17.933 9.70095 17.947H9.71895C10.8187 17.9498 11.9078 17.7315 12.9216 17.3052C13.9354 16.8788 14.8532 16.2531 15.6205 15.4652C16.3877 14.6773 16.9889 13.7433 17.3882 12.7186C17.7875 11.6939 17.9768 10.5993 17.9449 9.50003C17.8787 7.24696 16.9405 5.10755 15.3281 3.53246C13.7157 1.95738 11.555 1.06956 9.30095 1.05603H9.28595C8.1857 1.053 7.09608 1.2712 6.08185 1.69767C5.06761 2.12414 4.14947 2.75016 3.382 3.53853C2.61452 4.3269 2.01338 5.26153 1.61431 6.28685C1.21523 7.31217 1.02637 8.40726 1.05895 9.50703" fill="white"></path><path d="M9.14204 6.64801C7.86752 6.64886 6.60551 6.39657 5.42927 5.90578C4.25303 5.415 3.18598 4.69549 2.29004 3.78901L3.03704 3.04301C3.83455 3.8504 4.7844 4.49145 5.83151 4.92901C6.87863 5.36657 8.00218 5.59192 9.13704 5.59201H9.15504C10.3463 5.59304 11.5237 5.33574 12.606 4.83785C13.6882 4.33996 14.6497 3.61332 15.424 2.70801L16.224 3.39301C15.3509 4.41439 14.2667 5.23431 13.0462 5.79625C11.8256 6.35819 10.4977 6.64878 9.15404 6.64801H9.14204Z" fill="white"></path><path d="M15.6219 16.2102C14.815 15.3538 13.8424 14.6706 12.7631 14.2019C11.6839 13.7333 10.5205 13.4891 9.34392 13.4842H9.32692C8.22719 13.4804 7.13797 13.6982 6.12428 14.1247C5.11059 14.5511 4.19321 15.1774 3.42692 15.9662L2.66992 15.2302C3.53451 14.3405 4.56945 13.634 5.71301 13.153C6.85657 12.6719 8.08531 12.4261 9.32592 12.4302H9.34592C10.6658 12.4351 11.9708 12.7084 13.1817 13.2334C14.3927 13.7584 15.4842 14.5242 16.3899 15.4842L15.6219 16.2102Z" fill="white"></path><path d="M9.71361 19C6.45761 19 3.90461 14.928 3.77461 9.522C3.69161 6.116 4.62961 3.072 6.27161 1.381C6.65378 0.958587 7.11787 0.618327 7.63567 0.380916C8.15347 0.143505 8.71415 0.0139057 9.28361 0H9.29161C12.5466 0 15.0996 4.072 15.2296 9.478C15.3116 12.887 14.3786 15.932 12.7296 17.622C12.3475 18.0435 11.8838 18.383 11.3666 18.6199C10.8493 18.8567 10.2893 18.9861 9.72061 19H9.71361ZM9.29161 1.056H9.28561C8.85742 1.07137 8.43677 1.1733 8.04905 1.35565C7.66132 1.538 7.31453 1.79699 7.02961 2.117C5.57561 3.609 4.75361 6.369 4.82961 9.5C4.94461 14.239 7.08861 17.948 9.71361 17.948H9.71961C10.1479 17.9327 10.5687 17.8307 10.9564 17.6481C11.3442 17.4656 11.6909 17.2063 11.9756 16.886C13.4286 15.394 14.2516 12.634 14.1756 9.503C14.0606 4.764 11.9156 1.056 9.29261 1.056" fill="white"></path><path d="M18.4579 8.95651L0.543945 8.99121L0.545991 10.0472L18.46 10.0125L18.4579 8.95651Z" fill="white"></path><path d="M10.0306 0.526855H8.97461V18.4659H10.0306V0.526855Z" fill="white"></path></g><defs><clipPath id="clip0_253_14118"><rect width="19.003" height="19.003" fill="white"></rect></clipPath></defs></svg>