<svg class="relative mt-[0.5rem] h-auto fill-default  transition-all group-hover:fill-main sm:mt-[0.77rem]  w-[3.25rem]   sm:w-[4.6875rem] 2xl:w-[5.9375rem]" xmlns="http://www.w3.org/2000/svg" width="189" height="51" viewBox="0 0 189 51" fill="#1A212F"><path d="M5.93781 19.4794H9.4097V1.15535H15.3475V0.278732H0V1.15535H5.93781V19.4794ZM54.4823 8.39648C51.6824 7.29567 49.5484 6.2918 49.5484 4.2659C49.5484 2.39553 51.4724 0.983658 54.0263 0.983658C54.6174 0.920289 55.215 0.977328 55.7839 1.15138C56.3527 1.32544 56.8812 1.61297 57.3381 1.99698C57.7949 2.38099 58.1709 2.85367 58.4437 3.38702C58.7164 3.92038 58.8805 4.50358 58.9261 5.10211V5.26976H59.8401V5.10211C59.8401 2.19354 57.1362 0 53.5523 0C49.6184 0 46.7525 2.30465 46.7525 5.47984C46.7525 8.97013 50.0764 10.3537 52.7523 11.4666L52.8003 11.4868C55.2982 12.5331 57.6582 13.5228 57.6582 15.5629C57.6582 17.4312 55.7302 18.7381 52.9683 18.7381C49.7544 18.7381 47.3285 16.8515 47.3285 14.351V14.1833H46.4145V14.351C46.4145 17.3807 49.5124 19.75 53.4683 19.75C57.6362 19.75 60.5481 17.4737 60.5481 14.2177C60.5481 10.7839 57.4622 9.57204 54.4783 8.39851M138.362 18.6108H128.174V10.1881H135.996V9.31146H128.174V1.15535H138.096V0.278732H124.696V19.4794H138.356L138.362 18.6108ZM163.895 19.4794V0.27066H162.929V14.6317L150.395 0.278732H148.177V19.4794H149.145V3.92657L162.757 19.4794H163.895ZM173.652 0.27066V1.14726H179.594V19.4794H183.068V1.15535H188.994V0.278732L173.652 0.27066ZM18.5994 46.3816C18.0079 47.3964 17.1532 48.2287 16.1275 48.7886C15.1019 49.3486 13.9442 49.6149 12.7796 49.5588C8.39373 49.5588 5.55782 46.1251 5.55782 40.8311C5.55782 35.4805 8.34573 32.1579 12.8336 32.1579C16.0175 32.1579 18.4194 33.8707 18.4194 36.141V36.3087H19.3334V36.141C19.3334 33.2506 16.0835 30.9844 11.9336 30.9844C10.6381 30.9696 9.35266 31.215 8.1519 31.7064C6.95113 32.1977 5.85902 32.9251 4.93903 33.8464C4.01903 34.7677 3.28949 35.8644 2.79281 37.0729C2.29612 38.2814 2.04219 39.5776 2.04577 40.886C2.04934 42.1945 2.31036 43.4892 2.81365 44.6949C3.31694 45.9006 4.05246 46.9932 4.97748 47.9094C5.9025 48.8255 6.99857 49.5468 8.202 50.0315C9.40544 50.5161 10.6922 50.7543 11.9876 50.7324C13.5001 50.8027 15.0024 50.4488 16.3279 49.7097C17.6534 48.9706 18.7504 47.8754 19.4974 46.5452L19.6154 46.3029H18.6434L18.5994 46.3816ZM29.5311 50.4617H32.999V31.253H29.5271L29.5311 50.4617ZM41.3307 32.1296H47.2685V50.4617H50.7424V32.1296H56.6802V31.253H41.3247L41.3307 32.1296ZM73.5977 41.0795L67.4879 31.253H63.662L70.4998 42.2531V50.4617H73.9737V42.2551L80.8374 31.255H79.6775L73.5977 41.0795ZM109.549 41.7885L103.495 31.253H99.7748V50.4617H100.741V33.2345L107.893 45.7171H108.507L115.658 33.2345V50.4617H119.132V31.253H115.624L109.549 41.7885ZM157.675 31.253H154.195V50.4617H167.195V49.575H157.673L157.675 31.253ZM179.13 31.253H175.654V50.4617H188.654V49.575H179.128L179.13 31.253ZM102.037 10.3517L102.023 10.3658V0.278732H98.5489V19.4794H102.023V11.6565L102.037 11.6424V10.3517ZM106.537 7.50775L114.396 0.278732H112.978L103.513 8.99033L104.067 9.82047L110.846 19.4794H114.896L106.537 7.50775ZM30.867 0.37973L30.823 0.278732H29.3991L21.1453 19.4794H22.2473L24.5432 14.1146H29.7991L30.135 13.238H24.9352L28.8151 4.12856L32.705 13.2401H32.673L33.049 14.1167H33.087L35.3549 19.4794H39.0428L30.867 0.37973ZM81.3514 9.30945H74.5016V0.278732H71.0277V19.4794H74.5016V10.1881H81.0474L81.3514 9.30945ZM84.0653 0.278732V6.77455V10.9597V19.4794H87.5392V0.27066L84.0653 0.278732ZM137.488 31.354L137.444 31.253H136.012L127.766 50.4617H128.868L131.164 45.097H136.384L136.72 44.2204H131.544L135.434 35.1089L139.324 44.2204H139.314L139.69 45.097H139.706L141.975 50.4617H145.663L137.488 31.354Z"></path></svg>