<svg class="w-[0.57rem] sm:w-auto" xmlns="http://www.w3.org/2000/svg" width="19" height="16" viewBox="0 0 19 16"><g><path d="M17.238 0.243498C14.8088 1.22932 4.39755 5.4529 1.52241 6.60496C-0.407509 7.34143 0.723208 8.03344 0.723208 8.03344C0.723208 8.03344 2.36896 8.58628 3.78187 9.00187C5.1928 9.41746 5.94661 8.95548 5.94661 8.95548L12.5809 4.57726C14.9331 3.0096 14.3688 4.30084 13.8044 4.85368C12.5809 6.05213 10.5583 7.94259 8.86319 9.46192C8.11135 10.1075 8.48628 10.6604 8.81583 10.9368C10.0393 11.9516 13.3801 14.0257 13.5676 14.1629C14.5622 14.853 16.5158 15.8446 16.8137 13.7474L17.9898 6.51025C18.3667 4.06695 18.7436 1.80922 18.789 1.1636C18.9311 -0.404053 17.236 0.241565 17.236 0.241565L17.238 0.243498Z"></path></g></svg>