<svg width="20" height="20" viewBox="0 0 20 20" xmlns="http://www.w3.org/2000/svg" class="w-[0.965rem] sm:w-auto"><g clip-path="url(#clip0_253_14108)"><mask id="mask0_253_14108" maskUnits="userSpaceOnUse" x="0" y="0" width="20" height="20"><path d="M19.862 0H0V19.862H19.862V0Z" fill="white"></path></mask><g mask="url(#mask0_253_14108)"><path d="M19.663 18.662L15.063 14.062C15.05 14.049 15.033 14.044 15.019 14.033C16.4413 12.356 17.16 10.194 17.0248 7.99922C16.8896 5.80446 15.9111 3.74699 14.2938 2.25717C12.6764 0.767358 10.5457 -0.0393846 8.34727 0.00569895C6.14882 0.0507825 4.05295 0.9442 2.49809 2.49907C0.943224 4.05393 0.0498059 6.1498 0.00472239 8.34825C-0.0403611 10.5467 0.766382 12.6774 2.2562 14.2947C3.74601 15.912 5.80349 16.8906 7.99824 17.0258C10.193 17.161 12.355 16.4423 14.032 15.02C14.043 15.033 14.048 15.051 14.061 15.064L18.661 19.664C18.7957 19.7858 18.9721 19.8512 19.1537 19.8466C19.3352 19.8421 19.5081 19.7679 19.6365 19.6395C19.7649 19.5111 19.8391 19.3382 19.8437 19.1566C19.8482 18.9751 19.7828 18.7987 19.661 18.664M8.53903 15.621C7.13814 15.621 5.76871 15.2056 4.60392 14.4273C3.43913 13.649 2.53128 12.5428 1.99519 11.2485C1.45909 9.9543 1.31882 8.53014 1.59212 7.15618C1.86542 5.78221 2.54001 4.52014 3.53059 3.52956C4.52116 2.53899 5.78323 1.8644 7.1572 1.5911C8.53117 1.3178 9.95532 1.45807 11.2496 1.99416C12.5438 2.53026 13.65 3.4381 14.4283 4.6029C15.2066 5.76769 15.622 7.13712 15.622 8.538C15.6222 9.46819 15.439 10.3893 15.0831 11.2487C14.7272 12.1081 14.2055 12.889 13.5478 13.5467C12.89 14.2045 12.1091 14.7262 11.2497 15.0821C10.3903 15.438 9.46922 15.6211 8.53903 15.621Z"></path></g></g><defs><clipPath id="clip0_253_14108"><rect width="19.863" height="19.862" fill="white"></rect></clipPath></defs></svg>