<svg class="relative h-auto  fill-default transition-all group-hover:fill-main   w-[3.25rem]  sm:w-[4.6875rem] 2xl:w-[5.9375rem]" xmlns="http://www.w3.org/2000/svg" width="171" height="141" viewBox="0 0 171 141" fill="#1A212F"><path d="M80.1515 140.482V76.3154L80.1615 68.8258C80.1948 66.3239 80.3134 63.8288 80.5174 61.3403C81.1246 53.5021 82.6328 45.7619 85.0113 38.2757C84.358 36.2465 83.6247 34.2448 82.8114 32.2707C80.9281 27.6452 78.5158 23.258 75.6236 19.1983C74.1724 17.1758 72.5726 15.2663 70.8378 13.4862C69.1112 11.6976 67.2379 10.0598 65.2379 8.59013C61.2275 5.64279 56.7421 3.41908 51.9804 2.01756C47.2176 0.638423 42.2833 -0.0418194 37.3288 -0.00227655C39.7987 1.05208 42.1527 2.10442 44.3606 3.27997C46.4948 4.40017 48.5497 5.6683 50.5104 7.07525C51.4524 7.75189 52.3563 8.46086 53.2123 9.18396C54.0683 9.90707 54.8863 10.6423 55.6522 11.4058C57.1431 12.8909 58.5159 14.4922 59.7581 16.1948C60.3581 17.031 60.9341 17.8612 61.462 18.7217C61.99 19.5821 62.494 20.4385 62.95 21.3313C63.184 21.7676 63.384 22.2342 63.612 22.6664C63.84 23.0986 64.04 23.5652 64.254 24.0015C64.6639 24.9044 65.0479 25.8073 65.3959 26.7445C66.0719 28.6088 66.7279 30.463 67.2419 32.4C67.5079 33.3615 67.7078 34.3512 67.9558 35.3268C68.2038 36.3023 68.4038 37.282 68.6038 38.2818C68.8538 39.6088 69.0938 41.2994 69.2938 43.085C69.9931 49.1457 70.3397 55.2426 70.3318 61.3443V140.482H80.1515Z"></path><path d="M0.123997 32.4C0.0759983 32.5576 0.0419987 32.7171 0 32.8706V0.00782266H30.045C27.5711 1.05814 25.2212 2.1125 23.0093 3.27997C20.8751 4.40017 18.8202 5.6683 16.8595 7.07525C15.9135 7.75189 15.0135 8.46086 14.1576 9.18396C13.3016 9.90707 12.4836 10.6423 11.7176 11.4058C10.2255 12.8897 8.8525 14.4911 7.61176 16.1948C7.00778 17.031 6.4358 17.8612 5.90781 18.7217C5.37983 19.5821 4.87385 20.4385 4.41786 21.3313C4.18387 21.7676 3.98587 22.2342 3.75588 22.6664C3.52589 23.0986 3.3259 23.5652 3.1079 24.0015C2.70192 24.9044 2.31793 25.8073 1.96994 26.7445C1.29396 28.6088 0.63798 30.463 0.123997 32.4Z"></path><path d="M89.8971 140.482V76.3154L89.8931 68.8258C89.8598 66.3239 89.7405 63.8288 89.5352 61.3403C88.9294 53.4995 87.4219 45.7565 85.0433 38.2677C85.6966 36.2384 86.4299 34.2367 87.2432 32.2627C89.1264 27.6371 91.5387 23.2498 94.431 19.1903C95.8822 17.1677 97.482 15.2583 99.2169 13.4781C100.943 11.6895 102.817 10.0516 104.817 8.58205C108.828 5.63831 113.313 3.41804 118.074 2.01958C122.837 0.640498 127.771 -0.0397435 132.726 -0.000256705C130.252 1.05006 127.902 2.10442 125.69 3.27189C123.555 4.39209 121.5 5.66021 119.538 7.06717C118.596 7.74381 117.692 8.4548 116.836 9.1779C115.98 9.90101 115.162 10.6362 114.396 11.3997C112.905 12.8867 111.531 14.49 110.289 16.1948C109.689 17.031 109.113 17.8612 108.585 18.7217C108.057 19.5821 107.551 20.4385 107.095 21.3313C106.861 21.7676 106.661 22.2342 106.433 22.6664C106.205 23.0986 106.005 23.5652 105.791 24.0015C105.381 24.9044 104.997 25.8073 104.649 26.7445C103.973 28.6088 103.317 30.463 102.803 32.4C102.537 33.3615 102.335 34.3512 102.089 35.3268C101.843 36.3023 101.643 37.282 101.443 38.2818C101.193 39.6088 100.953 41.2994 100.753 43.085C100.053 49.1457 99.7069 55.2426 99.7148 61.3443V140.482H89.8971Z"></path><path d="M140.008 -0.00227655H170.047L170.053 32.8626C170.009 32.7091 169.977 32.5515 169.929 32.3919C169.415 30.459 168.759 28.6047 168.083 26.7364C167.737 25.7992 167.347 24.8963 166.947 23.9934C166.727 23.5572 166.513 23.1047 166.299 22.6583C166.085 22.2119 165.869 21.7615 165.637 21.3232C165.179 20.4284 164.695 19.5498 164.147 18.7136L164.039 18.5487C163.526 17.7653 163.003 16.9681 162.443 16.1868C161.202 14.4829 159.829 12.8815 158.337 11.3977C157.571 10.6362 156.749 9.91514 155.897 9.17588C155.045 8.43662 154.141 7.74381 153.195 7.06717C151.234 5.65945 149.178 4.39064 147.043 3.26987C144.831 2.1024 142.481 1.05006 140.008 -0.00227655Z"></path></svg>