<svg class="w-[0.48rem] sm:w-auto" xmlns="http://www.w3.org/2000/svg" width="16" height="17" viewBox="0 0 16 17"><g><path d="M3.57116 16.1348H0.202637V4.86625H3.57116V16.1348ZM15.9224 16.1348H12.5539V10.1174C12.5539 8.55105 11.9925 7.76226 10.8921 7.76226C10.0163 7.76226 9.46607 8.20173 9.18536 9.0694V16.1235H5.81684C5.81684 16.1235 5.86176 5.98183 5.81684 4.85498H8.47797L8.68009 7.10868H8.74746C9.43239 5.98183 10.544 5.21557 12.0598 5.21557C13.2051 5.21557 14.1371 5.53109 14.8557 6.34242C15.5743 7.15376 15.9224 8.23553 15.9224 9.75678V16.1235V16.1348Z"></path><path d="M1.88689 3.73993C2.84809 3.73993 3.62729 2.98317 3.62729 2.04965C3.62729 1.11614 2.84809 0.359375 1.88689 0.359375C0.92569 0.359375 0.146484 1.11614 0.146484 2.04965C0.146484 2.98317 0.92569 3.73993 1.88689 3.73993Z"></path></g></svg>