<svg class="w-[0.59rem] sm:w-auto" xmlns="http://www.w3.org/2000/svg" width="20" height="20" viewBox="0 0 20 20"><g><path d="M16.2567 4.96239C16.2567 5.107 16.2326 5.25161 16.1724 5.38417C16.1121 5.51674 16.0398 5.63725 15.9314 5.7457C15.8229 5.85416 15.7024 5.92647 15.5698 5.98673C15.4373 6.04698 15.2927 6.07108 15.148 6.07108C15.0034 6.07108 14.8588 6.04698 14.7263 5.98673C14.5937 5.92647 14.4732 5.85416 14.3647 5.7457C14.2563 5.63725 14.184 5.51674 14.1237 5.38417C14.0634 5.25161 14.0393 5.107 14.0393 4.96239C14.0393 4.66111 14.1599 4.38394 14.3647 4.17907C14.5696 3.9742 14.8588 3.85369 15.148 3.85369C15.4373 3.85369 15.7265 3.9742 15.9314 4.17907C16.1362 4.38394 16.2567 4.67316 16.2567 4.96239ZM19.7997 9.99972L19.7395 14.0609C19.7274 15.5191 19.1369 16.917 18.1005 17.9414C17.0642 18.9778 15.6783 19.5562 14.2201 19.5803L10.1589 19.6406H10.1469L6.0977 19.5803C4.63952 19.5683 3.2416 18.9778 2.21726 17.9414C1.18087 16.917 0.602424 15.5191 0.578322 14.0609L0.518066 9.99972L0.578322 5.93852C0.590373 4.48034 1.18087 3.08242 2.21726 2.05808C3.2416 1.02169 4.63952 0.443244 6.0977 0.419142L10.1589 0.358887H10.171L14.2201 0.419142C15.6783 0.431193 17.0762 1.02169 18.1005 2.05808C19.1369 3.09447 19.7154 4.48034 19.7395 5.93852L19.7997 9.99972ZM18.0041 9.99972L17.9439 5.97467C17.9439 4.98649 17.5341 4.03446 16.8352 3.3355C16.1362 2.63653 15.1842 2.23885 14.196 2.2268L10.1589 2.16654L6.1218 2.2268C5.13362 2.2268 4.18158 2.63653 3.48262 3.3355C2.78366 4.03446 2.38598 4.98649 2.37393 5.97467L2.31367 9.99972L2.37393 14.0368C2.37393 15.025 2.78366 15.977 3.48262 16.676C4.18158 17.375 5.13362 17.7726 6.1218 17.7847L10.1589 17.845L14.196 17.7847C15.1842 17.7847 16.1362 17.375 16.8352 16.676C17.5341 15.977 17.9318 15.025 17.9439 14.0368L18.0041 9.99972ZM15.1119 9.99972C15.1119 11.3133 14.5937 12.5666 13.6658 13.4945C12.7378 14.4225 11.4725 14.9407 10.171 14.9407C8.86944 14.9407 7.60408 14.4225 6.67615 13.4945C5.74822 12.5666 5.23003 11.3012 5.23003 9.99972C5.23003 8.69821 5.74822 7.43285 6.67615 6.50492C7.60408 5.57699 8.86944 5.05879 10.171 5.05879C11.4725 5.05879 12.7378 5.57699 13.6658 6.50492C14.5937 7.43285 15.1119 8.69821 15.1119 9.99972ZM13.3163 9.99972C13.3163 9.1682 12.9788 8.36078 12.3883 7.77028C11.7978 7.17978 10.9904 6.84235 10.1589 6.84235C9.32738 6.84235 8.51996 7.17978 7.92946 7.77028C7.33896 8.36078 7.00153 9.1682 7.00153 9.99972C7.00153 10.8312 7.33896 11.6387 7.92946 12.2292C8.51996 12.8197 9.32738 13.1571 10.1589 13.1571C10.9904 13.1571 11.7978 12.8197 12.3883 12.2292C12.9788 11.6387 13.3163 10.8312 13.3163 9.99972Z"></path></g></svg>