<svg width="20" height="20" viewBox="0 0 20 20" fill="none" xmlns="http://www.w3.org/2000/svg"><g clip-path="url(#clip0_253_14151)"><path d="M7.06787 6.5801H10.9579C11.442 6.57135 11.9215 6.67615 12.3579 6.8861C12.7496 7.07531 13.0787 7.37313 13.3059 7.7441C13.5339 8.12295 13.6517 8.55794 13.6459 9.0001C13.6536 9.44322 13.5372 9.87967 13.3099 10.2601C13.0818 10.6318 12.7531 10.9314 12.3619 11.1241C11.9267 11.3379 11.4467 11.4449 10.9619 11.4361H8.33787V14.5001H7.06787V6.5801ZM10.9339 10.3121C11.3118 10.3354 11.6836 10.2082 11.9679 9.9581C12.0911 9.83521 12.1873 9.68794 12.2503 9.52573C12.3133 9.36352 12.3418 9.18994 12.3339 9.0161C12.3414 8.8414 12.3128 8.66702 12.2498 8.50389C12.1868 8.34077 12.0909 8.1924 11.9679 8.0681C11.8275 7.94206 11.6634 7.8453 11.4852 7.78348C11.3069 7.72167 11.1181 7.69604 10.9299 7.7081H8.32987V10.3081L10.9339 10.3121Z" fill="#1A212F" stroke="none" class="hover-path"></path><path d="M14.334 0.75H5.665C2.644 0.75 0.75 2.889 0.75 5.916V14.084C0.75 17.111 2.634 19.25 5.665 19.25H14.333C17.364 19.25 19.25 17.111 19.25 14.084V5.916C19.25 2.889 17.364 0.75 14.334 0.75Z" stroke-width="1.5" stroke-miterlimit="10" stroke-linecap="round" stroke-linejoin="round"></path></g><defs><clipPath id="clip0_253_14151"><rect width="20" height="20" fill="white"></rect></clipPath></defs></svg>