<svg width="22" height="20" viewBox="0 0 22 20" xmlns="http://www.w3.org/2000/svg" class="w-[1.02125rem] sm:w-auto"><g clip-path="url(#clip0_253_14133)"><mask id="mask0_253_14133" maskUnits="userSpaceOnUse" x="0" y="0" width="22" height="20"><path d="M21.008 0H0V19.599H21.008V0Z" fill="white"></path></mask><g mask="url(#mask0_253_14133)"><path d="M20.993 3.67291C20.993 3.23 20.875 2.79507 20.6513 2.41284C20.4275 2.03061 20.106 1.71488 19.7197 1.49808C19.3335 1.28129 18.8965 1.17127 18.4536 1.17932C18.0108 1.18738 17.5781 1.31322 17.2 1.54391L14.664 3.09991C14.4774 3.21457 14.264 3.27808 14.0451 3.28405C13.8262 3.29002 13.6095 3.23824 13.417 3.13391L8.161 0.299912C7.77587 0.0913143 7.34258 -0.0121359 6.90475 -2.28017e-05C6.46692 0.0120903 6.04001 0.139339 5.667 0.368912L1.194 3.10891C0.830204 3.33279 0.529591 3.64585 0.320642 4.01842C0.111693 4.391 0.001327 4.81075 7.5093e-08 5.23791V15.9309C-0.000108635 16.374 0.117817 16.8091 0.341648 17.1915C0.565478 17.5738 0.887131 17.8897 1.27352 18.1065C1.65991 18.3233 2.09709 18.4333 2.54008 18.4251C2.98307 18.4169 3.41588 18.2909 3.794 18.0599L6.328 16.4999C6.51457 16.3853 6.72804 16.3217 6.94694 16.3158C7.16585 16.3098 7.38246 16.3616 7.575 16.4659L12.834 19.2999C13.2191 19.5085 13.6524 19.612 14.0903 19.5998C14.5281 19.5877 14.955 19.4605 15.328 19.2309L19.814 16.4909C20.1788 16.2681 20.4802 15.9553 20.6893 15.5825C20.8983 15.2097 21.0081 14.7894 21.008 14.3619L20.993 3.67291ZM3.145 16.9939C2.95599 17.1101 2.73941 17.1737 2.51759 17.1783C2.29578 17.1828 2.07677 17.1281 1.88315 17.0198C1.68953 16.9115 1.52832 16.7535 1.41614 16.5621C1.30396 16.3706 1.24489 16.1528 1.245 15.9309V5.23491C1.24552 5.02116 1.30097 4.81113 1.40604 4.62498C1.51111 4.43883 1.66227 4.28282 1.845 4.17191L6.3 1.45091V15.1669C6.0811 15.2275 5.8715 15.3176 5.677 15.4349L3.145 16.9939ZM8.161 15.3759C7.96474 15.2711 7.75516 15.1934 7.538 15.1449V1.38491H7.563L12.822 4.21591C13.0184 4.32046 13.2279 4.39816 13.445 4.44691V18.2189H13.417L8.161 15.3759ZM19.742 14.3659C19.7415 14.5797 19.686 14.7897 19.581 14.9758C19.4759 15.162 19.3247 15.318 19.142 15.4289L14.7 18.1539V4.43691C14.9189 4.37636 15.1285 4.2862 15.323 4.16891L17.853 2.60991C18.042 2.49373 18.2586 2.43008 18.4804 2.42553C18.7022 2.42098 18.9212 2.47568 19.1149 2.58401C19.3085 2.69233 19.4697 2.85035 19.5819 3.04176C19.694 3.23318 19.7531 3.45105 19.753 3.67291L19.742 14.3659Z"></path></g></g><defs><clipPath id="clip0_253_14133"><rect width="21.008" height="19.599" fill="white"></rect></clipPath></defs></svg>