<svg width="20" height="20" viewBox="0 0 20 20" fill="none" xmlns="http://www.w3.org/2000/svg"><g clip-path="url(#clip0_253_14143)"><path d="M19.25 10C19.25 11.8295 18.7075 13.6179 17.6911 15.139C16.6747 16.6602 15.23 17.8458 13.5398 18.5459C11.8496 19.246 9.98974 19.4292 8.19542 19.0723C6.40109 18.7154 4.7529 17.8344 3.45927 16.5407C2.16563 15.2471 1.28465 13.5989 0.92774 11.8046C0.570827 10.0103 0.754008 8.15039 1.45412 6.46018C2.15423 4.76996 3.33982 3.32531 4.86098 2.30891C6.38213 1.2925 8.17053 0.75 10 0.75C12.4533 0.75 14.806 1.72455 16.5407 3.45926C18.2755 5.19397 19.25 7.54675 19.25 10Z" stroke-width="1.5" stroke-miterlimit="10" stroke-linecap="round" stroke-linejoin="round"></path><path d="M13.4311 12.9462L9.66113 10.6932V5.84619" stroke-width="1.5" stroke-miterlimit="10" stroke-linecap="round" stroke-linejoin="round"></path></g><defs><clipPath id="clip0_253_14143"><rect width="20" height="20" fill="white"></rect></clipPath></defs></svg>