<svg width="17" height="20" viewBox="0 0 17 20" fill="none" xmlns="http://www.w3.org/2000/svg"><g clip-path="url(#clip0_253_14158)"><path d="M0.75 8.4021C0.756365 6.36563 1.57145 4.4151 3.01595 2.97961C4.46045 1.54411 6.41603 0.741231 8.4525 0.747596C10.489 0.753961 12.4395 1.56905 13.875 3.01355C15.3105 4.45805 16.1134 6.41363 16.107 8.4501V8.5371C15.8843 11.3152 14.6461 13.9139 12.629 15.8371C11.55 16.9579 10.345 17.9501 9.038 18.7941C8.86899 18.9403 8.65298 19.0208 8.4295 19.0208C8.20602 19.0208 7.99001 18.9403 7.821 18.7941C5.8726 17.526 4.16252 15.9249 2.769 14.0641C1.52614 12.4412 0.820373 10.471 0.75 8.4281L0.75 8.4021Z" stroke-width="1.5" stroke-miterlimit="10" stroke-linecap="round" stroke-linejoin="round"></path><path d="M8.42877 11.0109C9.78795 11.0109 10.8898 9.90904 10.8898 8.54987C10.8898 7.19069 9.78795 6.08887 8.42877 6.08887C7.0696 6.08887 5.96777 7.19069 5.96777 8.54987C5.96777 9.90904 7.0696 11.0109 8.42877 11.0109Z" stroke-width="1.5" stroke-miterlimit="10" stroke-linecap="round" stroke-linejoin="round"></path></g><defs><clipPath id="clip0_253_14158"><rect width="16.857" height="19.836" fill="white"></rect></clipPath></defs></svg>